<svg xmlns="http://www.w3.org/2000/svg" version="1.1" xmlns:xlink="http://www.w3.org/1999/xlink" xmlns:svgjs="http://svgjs.com/svgjs" width="768" height="768"><svg version="1.1" xmlns="http://www.w3.org/2000/svg" xmlns:xlink="http://www.w3.org/1999/xlink" xmlns:svg="http://www.w3.org/2000/svg" xmlns:rdf="http://www.w3.org/1999/02/22-rdf-syntax-ns#" xmlns:cc="http://creativecommons.org/ns#" xmlns:dc="http://purl.org/dc/elements/1.1/" viewBox="0 0 768 768" width="768" height="768">
<style>svg {background-color: white; }</style>"
<metadata id="SvgjsMetadata1004">
Created by https://svgstud.io and licensed under CC-BY-SA 4.0 license. Please attribute https://svgstud.io
</metadata>
<metadata id="SvgjsMetadata1003">
running randomly, vector illustration, monochrome
</metadata>
<metadata id="SvgjsMetadata1002">
7
</metadata>
<metadata id="SvgjsMetadata1001">
<rdf:rdf>
<cc:work rdf:about="">
    <cc:license rdf:resource="http://creativecommons.org/licenses/by-sa/4.0/"></cc:license>
    <dc:creator>
        <cc:agent>
            <dc:title>https://svgstud.io</dc:title>
        </cc:agent>
    </dc:creator>
</cc:work>
<cc:license rdf:about="http://creativecommons.org/licenses/by-sa/4.0/">
    <cc:permits rdf:resource="http://creativecommons.org/ns#Reproduction"></cc:permits>
    <cc:permits rdf:resource="http://creativecommons.org/ns#Distribution"></cc:permits>
    <cc:requires rdf:resource="http://creativecommons.org/ns#Notice"></cc:requires>
    <cc:requires rdf:resource="http://creativecommons.org/ns#Attribution"></cc:requires>
    <cc:permits rdf:resource="http://creativecommons.org/ns#DerivativeWorks"></cc:permits>
    <cc:requires rdf:resource="http://creativecommons.org/ns#ShareAlike"></cc:requires>
</cc:license>
</rdf:rdf>
</metadata>
<metadata id="SvgjsMetadata1000">
9c6fb19ce33f784377d643d890c93e75c05058af7c68fd7b73c897321bff5f15
</metadata>
<path stroke="none" fill="black" fill-rule="evenodd" d="M211.80,767.95C120.50,767.90 120.50,767.90 112.46,765.15C108.03,763.63 100.90,760.50 96.61,758.19C92.32,755.87 86.39,752.38 83.44,750.42C80.49,748.46 74.34,743.59 69.77,739.59C65.20,735.60 59.49,730.12 57.08,727.41C54.68,724.71 50.27,718.78 47.28,714.24C44.30,709.70 40.33,702.68 38.47,698.64C36.60,694.60 33.83,687.30 32.30,682.40C29.53,673.52 29.53,673.44 29.64,645.67C29.72,627.62 30.13,617.47 30.82,616.78C31.40,616.20 38.09,615.13 45.69,614.40C53.28,613.66 62.42,613.08 66.00,613.10C69.58,613.12 73.39,613.49 74.48,613.91C76.45,614.68 76.45,614.69 74.48,615.73C73.39,616.30 69.06,618.19 64.86,619.93C60.66,621.67 56.41,624.00 55.40,625.11C53.59,627.11 53.61,627.12 59.04,626.48C62.04,626.13 65.10,625.65 65.83,625.42C66.56,625.19 68.92,625.28 71.08,625.63C73.24,625.97 75.00,626.54 74.99,626.88C74.98,627.22 71.56,629.45 67.37,631.83C62.16,634.81 60.09,636.49 60.80,637.20C61.50,637.90 64.76,637.60 71.16,636.24C76.30,635.15 83.65,633.08 87.50,631.65C92.48,629.79 96.47,629.04 101.33,629.02C105.70,629.01 108.04,629.38 107.81,630.06C107.62,630.64 103.68,633.45 99.06,636.31C94.43,639.16 90.49,642.01 90.28,642.63C90.08,643.25 91.09,644.06 92.52,644.42C93.96,644.78 98.37,644.81 102.32,644.48C106.54,644.14 110.12,644.31 111.00,644.91C112.28,645.78 112.22,646.13 110.50,647.42C109.40,648.24 105.69,650.31 102.25,652.02C98.81,653.73 96.00,655.55 96.00,656.06C96.00,656.58 96.56,657.00 97.25,657.00C97.94,656.99 103.56,656.52 109.74,655.94C116.71,655.29 121.61,655.24 122.64,655.82C124.02,656.59 123.57,657.17 119.90,659.30C117.48,660.70 114.23,662.43 112.67,663.12C109.92,664.36 109.90,664.42 112.00,665.20C114.14,665.99 114.12,666.06 110.91,670.12C107.64,674.24 107.64,674.24 111.07,673.50C112.96,673.09 117.42,671.65 121.00,670.30C124.58,668.95 130.58,666.73 134.34,665.36C138.10,663.99 144.29,662.61 148.09,662.29C152.23,661.94 155.00,662.09 155.00,662.67C155.00,663.19 153.76,664.78 152.25,666.18C150.74,667.59 146.57,670.59 143.00,672.85C136.70,676.83 136.60,676.96 139.75,676.98C141.82,676.99 143.00,677.50 143.00,678.37C143.00,679.12 142.07,680.92 140.93,682.37C139.79,683.81 139.18,685.00 139.57,685.00C139.97,685.00 144.42,683.68 149.46,682.06C154.50,680.45 163.32,678.18 169.06,677.03C174.80,675.87 183.60,674.66 188.60,674.32C194.65,673.92 197.93,674.08 198.37,674.79C198.74,675.39 197.57,676.96 195.77,678.30C193.97,679.64 187.78,683.33 182.00,686.49C176.22,689.66 170.61,692.87 169.53,693.63C167.74,694.87 167.72,695.00 169.33,695.00C170.31,695.00 174.35,694.53 178.31,693.96C182.26,693.39 187.75,692.46 190.50,691.88C193.25,691.31 198.13,690.46 201.33,689.99C204.54,689.51 207.81,689.37 208.58,689.67C209.36,689.97 210.00,690.56 210.00,690.98C210.00,691.40 206.51,694.14 202.25,697.05C197.99,699.97 192.81,703.66 190.75,705.26C188.69,706.86 187.00,708.55 187.00,709.01C187.00,709.48 190.04,708.99 193.75,707.93C197.46,706.87 202.30,706.01 204.50,706.03C208.50,706.07 208.50,706.07 202.00,712.00C198.43,715.26 196.18,717.94 197.00,717.95C197.82,717.97 200.97,717.31 204.00,716.50C207.03,715.69 211.07,715.02 213.00,715.02C215.27,715.02 220.37,713.06 227.50,709.44C233.55,706.36 240.41,703.60 242.75,703.29C245.11,702.98 247.00,703.15 247.00,703.67C247.00,704.18 246.45,705.15 245.77,705.83C244.79,706.81 245.00,707.19 246.77,707.65C248.00,707.97 249.00,708.74 249.00,709.37C248.99,709.99 246.18,712.72 242.75,715.44C239.31,718.16 234.59,721.90 232.25,723.76C229.91,725.62 228.00,727.78 228.00,728.57C228.00,729.36 228.81,730.00 229.79,730.00C230.77,730.00 234.17,729.33 237.34,728.50C240.51,727.67 245.28,727.00 247.95,727.00C251.59,727.00 254.98,725.96 261.46,722.85C266.46,720.45 272.14,718.50 274.91,718.23C279.15,717.83 279.77,718.02 280.26,719.88C280.69,721.54 279.31,723.38 273.76,728.52C269.88,732.11 266.89,735.23 267.12,735.45C267.35,735.68 271.02,735.38 275.28,734.78C279.54,734.18 283.35,734.02 283.76,734.42C284.16,734.83 282.65,736.81 280.40,738.83C278.16,740.85 273.92,744.50 271.00,746.95C268.07,749.39 266.18,751.56 266.79,751.76C267.41,751.97 271.81,751.41 276.57,750.52C281.33,749.62 285.46,749.13 285.75,749.42C286.04,749.70 285.53,751.06 284.64,752.43C283.74,753.81 283.00,755.35 283.00,755.85C283.00,756.36 286.70,755.18 291.23,753.22C295.76,751.26 301.61,749.46 304.23,749.20C308.65,748.78 309.00,748.91 309.00,751.00C309.00,753.02 309.34,753.18 312.25,752.55C314.04,752.16 317.30,751.60 319.50,751.29C323.50,750.73 323.50,750.73 320.50,754.00C318.85,755.79 314.26,759.68 310.30,762.63C303.11,768.00 303.11,768.00 211.80,767.95zM606.69,767.92C550.50,767.84 550.50,767.84 545.22,765.42C542.32,764.10 529.27,759.01 516.22,754.11C503.17,749.22 486.49,742.45 479.15,739.08C471.81,735.71 449.76,724.91 430.15,715.07C401.58,700.74 391.92,696.38 381.50,693.15C374.35,690.92 363.70,687.99 357.82,686.62C351.95,685.25 344.69,682.97 341.69,681.55C338.70,680.13 335.02,677.75 333.53,676.25C331.30,674.02 330.91,672.93 331.37,670.10C331.69,668.13 333.33,665.22 335.21,663.26C337.02,661.38 341.20,658.33 344.50,656.47C348.88,654.00 351.42,651.67 353.92,647.84C355.81,644.95 358.22,640.32 359.28,637.54C360.87,633.38 361.10,631.08 360.56,624.37C359.99,617.14 360.11,616.17 361.71,615.54C362.69,615.15 368.68,614.40 375.00,613.87C381.32,613.34 387.84,612.81 389.49,612.70C392.30,612.51 392.80,613.10 398.22,623.00C401.38,628.77 404.92,635.45 406.07,637.84C407.90,641.61 408.01,642.57 406.91,645.21C406.15,647.05 402.69,650.42 398.08,653.79C393.91,656.85 387.27,662.39 383.32,666.11C379.37,669.82 374.91,673.67 373.40,674.66C370.67,676.45 370.67,676.45 373.08,677.12C374.41,677.50 378.66,677.85 382.53,677.90C386.40,677.96 395.08,678.68 401.82,679.52C408.57,680.35 418.81,681.95 424.58,683.06C430.34,684.17 438.09,686.01 441.78,687.15C445.48,688.28 455.48,692.50 464.00,696.53C472.52,700.55 484.00,705.62 489.50,707.79C495.00,709.97 503.55,712.92 508.50,714.36C513.45,715.79 520.63,717.40 524.46,717.94C528.29,718.47 531.59,718.74 531.79,718.54C531.99,718.34 530.21,717.04 527.83,715.65C525.45,714.25 520.35,711.78 516.50,710.15C512.65,708.51 504.32,705.28 498.00,702.96C491.68,700.64 482.11,696.55 476.75,693.86C471.39,691.18 467.00,688.69 467.00,688.34C467.00,687.99 470.89,688.00 475.64,688.37C480.39,688.73 493.55,690.17 504.89,691.55C516.22,692.94 533.38,695.40 543.00,697.02C552.62,698.64 569.50,701.51 580.50,703.40C591.50,705.29 602.52,707.31 605.00,707.89C607.48,708.47 611.19,708.96 613.25,708.98C615.31,708.99 617.00,708.66 617.00,708.24C617.00,707.83 614.19,705.63 610.75,703.35C607.31,701.08 601.80,697.49 598.50,695.36C592.51,691.50 592.51,691.50 596.26,691.19C598.33,691.02 604.85,691.85 610.76,693.04C616.67,694.23 628.02,696.75 636.00,698.66C643.98,700.56 664.90,705.20 682.50,708.98C700.10,712.75 718.10,716.62 722.50,717.58C726.90,718.53 730.88,719.64 731.34,720.05C731.81,720.45 731.73,721.62 731.18,722.64C730.62,723.66 726.64,727.99 722.33,732.26C718.02,736.52 710.90,742.72 706.50,746.03C702.10,749.34 693.77,754.46 688.00,757.41C682.23,760.36 674.21,763.95 670.19,765.39C662.88,768.00 662.88,768.00 606.69,767.92zM341.32,668.00C343.14,668.00 347.30,667.52 350.57,666.94C353.83,666.36 357.29,665.66 358.25,665.38C359.21,665.10 360.00,664.48 360.00,664.00C360.00,663.53 357.52,662.63 354.48,662.00C351.44,661.37 347.64,661.14 346.03,661.49C344.41,661.85 341.95,663.04 340.55,664.14C339.15,665.24 338.00,666.56 338.00,667.07C338.00,667.58 339.49,668.00 341.32,668.00zM365.27,656.59C368.11,656.60 369.90,656.20 369.69,655.58C369.51,655.02 367.81,654.16 365.93,653.67C364.04,653.19 360.48,652.60 358.00,652.37C355.52,652.13 352.84,652.38 352.03,652.91C351.22,653.45 350.89,654.22 351.30,654.63C351.70,655.04 353.94,655.64 356.27,655.96C358.60,656.29 362.65,656.57 365.27,656.59zM364.56,646.98C365.14,646.99 366.49,646.33 367.56,645.52C369.24,644.24 369.30,643.90 368.00,643.03C367.18,642.48 366.02,642.02 365.44,642.02C364.86,642.01 363.51,642.67 362.44,643.48C360.76,644.76 360.70,645.10 362.00,645.97C362.82,646.52 363.98,646.98 364.56,646.98zM537.28,642.61C534.65,642.79 531.35,642.56 529.94,642.10C528.53,641.65 526.35,640.72 525.10,640.05C523.84,639.38 521.99,636.95 520.99,634.66C519.99,632.37 518.84,628.27 518.44,625.55C518.04,622.83 516.61,618.10 515.26,615.05C513.91,612.00 510.60,607.16 507.90,604.31C504.60,600.81 503.00,598.27 503.00,596.50C503.00,594.65 500.43,590.85 494.33,583.69C489.57,578.08 478.66,566.52 470.08,558.00C455.22,543.21 454.02,542.26 444.00,537.33C438.22,534.49 432.44,531.03 431.14,529.65C429.48,527.89 427.46,522.32 424.31,510.82C421.84,501.85 416.73,485.27 412.95,474.00C409.17,462.73 404.93,448.77 403.54,443.00C402.14,437.23 401.00,431.52 401.00,430.32C401.00,429.12 400.30,427.44 399.44,426.58C398.06,425.20 397.54,425.18 395.08,426.46C393.55,427.25 391.61,428.93 390.78,430.20C389.94,431.46 386.16,436.38 382.38,441.13C378.60,445.87 370.94,454.88 365.36,461.14C359.78,467.40 352.92,475.87 350.11,479.94C346.97,484.49 345.00,488.43 345.00,490.13C345.00,491.79 346.78,495.45 349.44,499.25C351.88,502.74 355.64,508.73 357.81,512.55C359.97,516.37 362.96,522.88 364.45,527.00C365.94,531.12 368.68,541.36 370.53,549.75C372.39,558.14 375.71,571.42 377.91,579.25C380.11,587.09 382.83,596.16 383.96,599.41C385.08,602.66 386.00,605.69 386.00,606.16C386.00,606.62 384.26,607.00 382.12,607.00C379.99,607.00 377.79,606.44 377.23,605.75C376.67,605.06 374.37,598.88 372.12,592.00C369.87,585.12 367.32,576.91 366.44,573.75C365.57,570.59 364.43,568.00 363.90,568.00C363.37,568.00 362.68,568.67 362.36,569.50C362.05,570.33 361.46,571.00 361.05,571.00C360.65,571.00 359.77,569.17 359.10,566.94C358.43,564.71 357.67,556.50 357.40,548.69C357.13,540.89 356.45,531.84 355.88,528.60C355.31,525.35 353.79,520.32 352.51,517.42C351.22,514.52 348.68,509.86 346.85,507.07C345.03,504.28 342.97,502.00 342.29,502.00C341.60,502.00 340.82,503.01 340.56,504.25C340.29,505.49 339.31,511.10 338.37,516.71C337.43,522.33 336.31,527.50 335.87,528.20C335.29,529.14 334.06,528.49 331.25,525.74C329.14,523.68 327.10,522.00 326.71,522.00C326.32,522.00 326.00,523.05 326.00,524.32C326.00,525.60 327.06,529.77 328.36,533.57C329.66,537.38 332.32,543.65 334.28,547.50C336.23,551.35 340.09,557.27 342.84,560.65C345.59,564.04 350.40,572.14 353.52,578.65C356.65,585.17 360.51,593.60 362.11,597.39C363.70,601.18 365.00,605.52 365.00,607.03C365.00,608.62 364.33,610.04 363.42,610.39C362.55,610.73 361.44,611.00 360.97,611.00C360.49,611.00 357.45,605.49 354.22,598.75C350.98,592.01 344.17,579.54 339.08,571.04C333.99,562.54 328.56,553.09 327.03,550.04C325.50,546.99 321.41,537.32 317.94,528.54C313.62,517.62 309.93,510.09 306.21,504.67C303.23,500.32 299.95,494.90 298.92,492.63C297.89,490.36 297.03,486.90 297.02,484.95C297.01,482.81 298.60,478.09 301.02,473.08C303.23,468.50 308.01,456.83 311.64,447.13C315.27,437.43 320.41,424.62 323.08,418.66C327.92,407.82 327.92,407.82 325.46,405.37C324.11,404.02 323.00,401.75 323.00,400.34C323.00,398.75 325.98,393.56 330.87,386.64C335.20,380.51 339.43,374.15 340.26,372.50C341.10,370.85 342.77,366.12 343.99,362.00C345.20,357.88 347.13,352.32 348.26,349.66C349.96,345.67 350.68,344.92 352.41,345.33C353.56,345.61 356.52,346.59 359.00,347.51C361.48,348.43 366.43,349.82 370.00,350.59C373.57,351.36 382.57,352.27 390.00,352.60C397.43,352.93 408.35,352.77 414.27,352.25C420.19,351.72 425.36,350.94 425.77,350.51C426.17,350.08 425.96,349.53 425.31,349.30C424.65,349.06 422.48,347.57 420.48,345.98C417.01,343.23 416.52,343.12 410.17,343.80C406.50,344.18 396.52,344.50 388.00,344.50C379.43,344.50 368.37,343.85 363.25,343.06C354.37,341.67 354.00,341.51 354.01,339.06C354.01,337.65 354.62,335.33 355.37,333.91C356.11,332.48 357.02,329.70 357.39,327.73C357.76,325.76 357.59,321.08 357.01,317.33C356.43,313.57 353.47,300.38 350.44,288.00C347.40,275.62 344.70,264.49 344.44,263.25C344.18,262.01 343.57,261.00 343.10,261.00C342.63,261.00 340.57,264.88 338.54,269.62C336.50,274.36 331.05,287.93 326.42,299.78C321.80,311.63 317.35,322.35 316.53,323.60C315.71,324.85 313.45,327.08 311.51,328.56C309.38,330.19 306.22,331.45 303.51,331.75C300.01,332.15 297.87,331.68 293.61,329.60C290.62,328.14 286.35,325.16 284.10,322.99C281.15,320.12 279.85,317.91 279.38,314.99C279.03,312.77 278.35,310.71 277.87,310.42C277.39,310.12 277.00,308.84 277.00,307.56C277.00,305.73 278.10,304.75 282.25,302.89C286.62,300.93 288.96,300.56 296.25,300.72C303.24,300.86 305.00,300.61 305.00,299.47C305.00,298.69 303.90,297.32 302.55,296.44C301.21,295.56 297.16,294.33 293.56,293.72C287.01,292.60 287.01,292.60 283.66,295.84C280.93,298.49 280.11,298.84 279.19,297.72C278.33,296.70 278.43,295.83 279.59,294.18C280.43,292.98 282.11,292.00 283.32,292.00C284.54,292.00 287.30,291.05 289.47,289.89C293.03,287.98 293.92,287.89 298.66,288.95C302.60,289.83 304.43,289.84 306.04,288.98C307.21,288.35 308.46,288.12 308.81,288.47C309.16,288.82 309.62,292.35 309.83,296.30C310.05,300.26 310.68,304.06 311.23,304.75C311.79,305.44 313.26,306.00 314.50,306.00C315.74,306.00 317.30,305.34 317.98,304.53C318.75,303.60 319.00,301.30 318.67,298.28C318.38,295.65 317.84,292.05 317.46,290.28C316.92,287.72 317.50,285.65 320.23,280.28C322.13,276.55 326.46,269.47 329.84,264.55C334.93,257.16 336.00,254.89 336.00,251.50C336.00,249.24 335.46,246.86 334.80,246.20C334.14,245.54 332.18,245.00 330.43,245.00C328.69,245.00 326.13,245.90 324.73,247.00C322.19,249.00 322.19,249.00 323.03,245.75C323.49,243.96 324.37,238.23 324.98,233.01C325.69,227.00 327.04,221.43 328.68,217.79C330.82,213.00 332.48,211.13 338.67,206.54C342.74,203.51 346.99,200.54 348.10,199.95C350.08,198.89 350.10,199.04 349.31,207.68C348.86,212.53 348.57,222.57 348.66,230.00C348.75,238.24 349.43,246.13 350.39,250.26C351.26,253.98 353.06,259.15 354.38,261.76C355.70,264.37 357.66,267.29 358.72,268.25C360.04,269.45 364.21,270.47 371.78,271.47C377.90,272.28 384.05,273.23 385.45,273.58C386.85,273.93 388.00,274.56 388.00,274.98C388.00,275.40 386.44,275.99 384.53,276.30C382.62,276.61 379.01,278.27 376.51,279.99C374.01,281.71 371.24,284.23 370.35,285.59C369.46,286.95 368.95,288.28 369.22,288.55C369.48,288.82 371.68,288.14 374.10,287.04C376.52,285.94 379.93,285.03 381.67,285.02C383.41,285.01 385.55,285.27 386.42,285.61C387.29,285.94 388.00,286.69 388.00,287.28C388.00,287.86 387.25,289.17 386.34,290.18C385.43,291.19 384.88,292.21 385.13,292.46C385.37,292.70 387.81,291.80 390.54,290.46C393.27,289.11 398.25,287.72 401.61,287.38C405.84,286.94 407.95,287.11 408.45,287.92C408.89,288.63 405.73,293.62 400.64,300.27C395.95,306.41 392.28,311.62 392.50,311.83C392.71,312.04 394.16,311.31 395.73,310.19C397.29,309.08 404.97,301.60 412.80,293.56C420.63,285.53 429.10,276.15 431.63,272.73C434.15,269.30 437.06,264.83 438.10,262.79C440.00,259.08 440.00,259.08 437.57,255.50C436.23,253.53 434.32,249.57 433.32,246.71C431.83,242.44 431.50,238.33 431.50,224.00C431.50,208.63 431.77,205.65 433.74,199.50C434.97,195.65 436.41,191.84 436.94,191.03C437.72,189.81 438.55,189.76 441.70,190.70C443.79,191.32 448.77,193.06 452.77,194.56C457.16,196.20 461.89,198.91 464.71,201.39C467.28,203.65 472.30,210.00 475.87,215.50C480.94,223.31 486.38,229.53 500.68,243.85C510.76,253.95 521.70,265.56 525.00,269.66C529.33,275.05 531.00,277.95 531.00,280.11C531.00,281.75 530.35,284.35 529.57,285.87C528.78,287.40 525.27,291.32 521.77,294.57C518.28,297.83 512.09,302.72 508.03,305.43C503.97,308.15 493.64,314.01 485.07,318.46C476.51,322.92 467.02,328.21 464.00,330.22C460.98,332.23 456.98,335.44 455.13,337.36C451.76,340.85 451.76,340.85 453.92,343.89C455.11,345.56 456.99,349.53 458.11,352.71C459.22,355.90 462.13,364.77 464.57,372.43C467.01,380.09 469.00,387.18 469.00,388.17C469.00,389.16 466.70,392.12 463.88,394.74C461.07,397.36 458.18,400.87 457.45,402.55C456.44,404.90 456.13,415.47 456.07,448.65C456.01,482.15 456.32,493.55 457.45,500.05C458.25,504.64 459.72,509.48 460.70,510.80C461.78,512.24 465.51,514.31 470.00,515.95C474.12,517.46 479.35,519.64 481.62,520.80C483.88,521.96 487.18,524.13 488.96,525.62C490.73,527.11 493.95,530.73 496.11,533.66C498.28,536.58 503.63,546.30 508.01,555.24C513.47,566.38 517.89,573.86 522.04,579.00C525.38,583.12 529.22,588.64 530.57,591.25C531.93,593.86 533.70,596.00 534.52,596.00C535.45,596.00 536.00,595.03 536.00,593.37C536.00,591.92 535.06,589.22 533.92,587.37C531.84,584.00 531.84,584.00 534.46,584.00C535.90,584.00 538.90,584.93 541.12,586.06C543.69,587.37 545.64,589.28 546.50,591.34C547.24,593.11 548.55,600.02 549.42,606.70C550.29,613.38 550.99,621.24 550.98,624.17C550.97,627.20 550.16,631.23 549.11,633.50C548.09,635.70 546.09,638.58 544.66,639.89C542.85,641.57 540.62,642.38 537.28,642.61zM525.87,631.00C527.38,631.00 529.49,630.36 530.56,629.58C531.62,628.80 532.15,627.81 531.72,627.38C531.29,626.95 529.37,626.60 527.47,626.60C525.56,626.60 523.50,627.10 522.89,627.71C522.28,628.32 522.08,629.31 522.45,629.91C522.82,630.51 524.36,631.00 525.87,631.00zM372.28,626.99C373.26,626.99 374.32,626.32 374.64,625.49C374.96,624.66 374.65,623.28 373.95,622.44C373.13,621.45 371.39,621.01 369.09,621.20C366.73,621.40 365.50,622.01 365.50,622.97C365.50,623.78 366.62,625.01 368.00,625.71C369.38,626.40 371.30,626.98 372.28,626.99zM725.50,558.64C724.40,558.72 715.62,557.74 706.00,556.46C696.38,555.18 680.17,553.24 670.00,552.14C659.83,551.04 646.55,549.83 640.50,549.44C634.45,549.06 628.38,548.32 627.00,547.80C624.75,546.95 624.68,546.76 626.25,545.88C627.21,545.34 628.00,544.41 628.00,543.82C628.00,543.09 626.03,542.96 621.91,543.43C618.55,543.81 613.38,543.82 610.41,543.45C607.43,543.07 605.00,542.36 605.00,541.86C605.00,541.36 606.24,540.44 607.75,539.83C609.26,539.21 615.90,537.18 622.50,535.32C629.10,533.46 639.23,531.02 645.00,529.89C650.77,528.77 658.34,527.15 661.82,526.30C666.48,525.15 667.85,524.45 667.02,523.62C666.28,522.88 660.25,522.51 649.20,522.54C634.21,522.58 630.92,522.92 617.00,525.89C608.48,527.70 598.24,529.43 594.25,529.74C589.42,530.10 587.00,529.93 587.00,529.22C587.00,528.63 588.19,527.21 589.65,526.06C591.11,524.91 592.08,523.75 591.81,523.48C591.54,523.21 587.24,523.41 582.26,523.92C576.53,524.51 568.11,524.50 559.35,523.88C551.74,523.35 545.14,522.54 544.70,522.10C544.25,521.65 546.50,520.33 549.69,519.16C552.89,517.99 557.57,516.59 560.10,516.05C562.63,515.50 570.28,514.38 577.10,513.54C583.92,512.71 596.66,511.58 605.42,511.02C614.17,510.47 623.54,509.73 626.23,509.38C629.31,508.97 630.77,508.37 630.18,507.78C629.66,507.26 621.52,506.33 612.09,505.72C598.36,504.82 590.51,504.89 572.72,506.05C560.50,506.85 541.73,507.48 531.00,507.45C520.27,507.42 509.80,507.06 507.72,506.65C505.64,506.24 504.20,505.49 504.51,504.98C504.82,504.48 509.14,502.85 514.10,501.36C519.43,499.76 522.59,498.36 521.81,497.94C521.09,497.55 513.75,496.93 505.50,496.55C497.25,496.18 484.44,495.44 477.04,494.91C468.49,494.30 463.30,493.50 462.81,492.72C462.38,492.05 462.02,490.88 462.02,490.12C462.01,489.36 463.61,487.22 465.58,485.36C467.55,483.51 470.01,481.53 471.04,480.98C472.62,480.13 473.19,480.48 474.52,483.05C475.47,484.88 476.76,486.00 477.70,485.81C478.63,485.63 479.87,483.45 480.72,480.50C481.51,477.75 482.49,473.02 482.91,470.00C483.33,466.98 484.46,461.59 485.42,458.03C486.38,454.47 487.77,450.42 488.51,449.03C489.84,446.50 489.84,446.50 491.00,449.50C491.63,451.15 492.58,454.98 493.10,458.00C493.63,461.02 494.71,466.65 495.52,470.50C496.32,474.35 497.10,478.36 497.24,479.42C497.38,480.47 497.95,481.48 498.50,481.66C499.05,481.84 500.84,477.83 502.48,472.75C504.12,467.66 505.38,463.27 505.29,463.00C505.19,462.73 504.29,462.34 503.30,462.15C502.31,461.96 501.09,461.42 500.59,460.95C500.07,460.45 501.36,457.89 503.72,454.79C505.94,451.88 508.26,448.52 508.87,447.32C509.49,446.11 510.00,444.87 510.00,444.55C510.00,444.24 508.15,444.27 505.89,444.63C501.90,445.27 501.80,445.22 502.49,442.90C502.88,441.58 504.42,438.93 505.92,437.00C507.41,435.07 509.00,432.88 509.46,432.11C510.02,431.18 509.51,430.14 507.91,428.93C505.53,427.13 505.53,427.13 507.63,424.29C508.79,422.72 510.71,419.52 511.91,417.18C513.10,414.84 514.46,413.17 514.93,413.46C515.40,413.75 516.98,416.98 518.44,420.64C520.31,425.30 520.79,427.61 520.05,428.35C519.47,428.93 519.01,430.32 519.03,431.45C519.05,432.58 520.17,435.30 521.53,437.50C522.88,439.70 523.99,442.33 523.99,443.34C524.00,444.35 523.01,445.98 521.81,446.95C519.62,448.73 519.62,448.73 522.81,453.70C524.56,456.44 526.00,459.28 526.00,460.02C526.00,460.76 525.11,462.32 524.02,463.48C522.05,465.58 522.05,465.61 524.13,473.29C525.29,477.53 526.56,481.00 526.96,481.00C527.35,481.00 528.23,478.53 528.91,475.52C529.58,472.50 530.63,469.73 531.23,469.36C531.83,468.98 533.36,469.88 534.63,471.35C535.89,472.82 537.47,475.82 538.12,478.01C538.78,480.21 539.72,482.00 540.21,482.00C540.70,482.00 541.75,480.44 542.55,478.53C543.35,476.62 544.46,471.55 545.02,467.28C545.57,463.00 546.50,456.57 547.09,453.00C547.67,449.43 548.85,444.14 549.71,441.25C550.57,438.36 551.60,436.00 551.99,436.00C552.39,436.00 553.68,439.26 554.86,443.25C556.04,447.24 557.01,452.30 557.02,454.50C557.03,456.70 557.43,459.12 557.91,459.89C558.62,461.01 558.97,460.92 559.79,459.39C560.34,458.35 561.27,454.12 561.87,450.00C562.46,445.88 563.21,440.48 563.53,438.00C563.85,435.52 564.91,431.99 565.88,430.15C567.65,426.81 567.65,426.81 569.76,434.15C570.93,438.19 572.34,443.98 572.92,447.00C573.49,450.02 574.23,455.54 574.56,459.25C574.89,462.96 575.53,466.00 575.99,466.00C576.44,466.00 577.76,463.21 578.91,459.81C580.06,456.40 581.00,452.45 581.00,451.04C581.00,449.62 581.92,445.12 583.05,441.05C584.18,436.97 585.37,433.21 585.69,432.69C586.01,432.17 586.67,432.44 587.14,433.29C587.62,434.14 588.84,439.03 589.86,444.17C590.87,449.30 591.51,455.13 591.26,457.12C590.97,459.47 591.46,461.92 592.66,464.12C593.67,465.98 594.73,468.81 595.00,470.42C595.27,472.03 595.99,473.50 596.58,473.70C597.17,473.89 599.76,472.20 602.33,469.94C604.90,467.68 607.00,465.18 607.00,464.40C607.00,463.35 606.25,463.13 604.25,463.56C602.74,463.90 600.94,464.34 600.25,464.55C599.56,464.76 598.33,464.68 597.50,464.36C596.67,464.05 596.00,463.25 596.00,462.60C596.00,461.94 597.86,459.63 600.13,457.45C602.40,455.28 605.55,451.50 607.13,449.05C608.71,446.61 610.00,444.04 610.00,443.35C610.00,442.37 609.09,442.41 605.87,443.54C603.61,444.34 601.13,445.00 600.37,445.00C599.62,445.00 599.00,444.12 599.00,443.03C599.00,441.95 600.69,439.39 602.75,437.33C604.81,435.28 607.74,432.05 609.25,430.16C610.76,428.27 612.00,426.17 612.00,425.50C612.00,424.61 610.89,424.47 607.98,425.00C605.55,425.45 603.71,425.34 603.34,424.74C603.00,424.18 604.58,421.96 606.86,419.79C609.14,417.62 611.00,415.65 611.00,415.41C611.00,415.17 610.46,414.11 609.81,413.07C608.81,411.47 609.06,410.52 611.31,407.28C612.79,405.14 614.00,402.63 614.00,401.70C614.00,400.76 613.55,400.00 613.00,400.00C612.45,400.00 612.00,399.44 612.00,398.75C611.99,398.06 613.46,394.24 615.25,390.25C617.04,386.26 618.87,383.12 619.32,383.27C619.77,383.42 621.46,386.69 623.09,390.52C625.02,395.08 625.84,398.41 625.47,400.13C625.05,402.02 625.74,404.10 627.92,407.53C630.81,412.09 630.87,412.41 629.34,415.00C627.80,417.61 627.87,417.88 631.37,423.09C633.37,426.05 635.00,428.89 635.00,429.41C635.00,429.92 634.24,431.19 633.30,432.22C631.86,433.81 631.77,434.71 632.73,438.29C633.35,440.61 634.37,443.83 634.99,445.47C635.84,447.71 636.32,448.09 636.97,447.04C637.45,446.28 638.13,442.47 638.49,438.58C638.85,434.68 639.81,428.14 640.62,424.03C641.44,419.92 642.31,416.36 642.55,416.11C642.80,415.87 643.27,415.93 643.59,416.26C643.92,416.58 645.30,421.27 646.67,426.68C648.04,432.08 649.13,438.67 649.09,441.33C649.05,444.57 649.77,447.46 651.27,450.11C653.50,454.06 653.50,454.06 651.14,455.86C648.79,457.67 648.79,457.67 650.90,461.80C652.23,464.40 653.51,465.74 654.36,465.41C655.11,465.13 656.33,463.76 657.07,462.37C658.27,460.13 658.55,460.03 659.60,461.46C660.24,462.35 661.09,465.98 661.47,469.54C661.85,473.09 662.57,476.00 663.08,476.00C663.59,476.00 664.00,475.82 664.00,475.61C664.00,475.40 664.70,471.46 665.55,466.86C666.41,462.26 667.82,455.91 668.68,452.75C669.55,449.59 670.58,447.00 670.97,447.00C671.36,447.00 672.23,449.44 672.89,452.42C673.77,456.34 674.82,458.31 676.68,459.53C679.02,461.06 679.20,461.65 678.68,466.06C678.23,469.83 678.50,471.40 679.89,473.11C681.68,475.32 681.68,475.32 683.92,473.08C685.98,471.02 686.03,470.69 684.58,469.09C683.71,468.13 683.00,466.96 683.00,466.49C683.00,466.02 684.58,462.59 686.50,458.87C688.42,455.15 690.00,451.66 690.00,451.11C690.00,450.57 688.35,449.98 686.33,449.81C684.31,449.64 682.49,449.00 682.29,448.39C682.09,447.78 683.55,445.34 685.53,442.97C688.21,439.76 688.98,438.06 688.55,436.33C688.19,434.91 688.79,432.37 690.07,429.86C691.78,426.51 691.92,425.57 690.84,424.88C690.10,424.41 688.94,424.02 688.25,424.02C687.56,424.01 687.00,423.41 687.00,422.68C687.00,421.95 688.34,419.59 689.97,417.43C691.61,415.27 692.96,412.87 692.97,412.11C692.99,411.35 692.28,410.19 691.39,409.54C689.93,408.48 690.02,407.90 692.25,403.43C693.61,400.72 695.27,396.82 695.94,394.76C696.60,392.71 697.51,390.81 697.95,390.53C698.38,390.26 700.38,394.36 702.37,399.63C704.54,405.36 706.00,411.00 706.00,413.63C706.00,416.64 707.16,420.43 709.67,425.66C713.35,433.30 713.35,433.30 710.98,435.22C708.61,437.13 708.61,437.13 711.82,442.97C715.03,448.81 715.03,448.81 712.40,450.72C709.78,452.64 709.78,452.64 711.91,456.82C713.08,459.12 714.34,461.00 714.71,461.00C715.08,461.00 717.51,458.70 720.10,455.89C722.70,453.08 725.43,450.98 726.16,451.22C727.26,451.59 727.50,461.40 727.50,505.08C727.50,557.79 727.47,558.50 725.50,558.64zM437.19,524.00C439.67,524.00 441.27,523.47 441.62,522.54C441.93,521.73 441.20,519.69 440.00,518.00C437.99,515.18 437.87,514.20 438.51,505.72C439.10,497.74 438.90,495.63 437.03,490.09C435.84,486.56 433.77,481.52 432.44,478.88C431.10,476.23 428.59,472.46 426.85,470.49C425.11,468.50 423.32,467.28 422.85,467.75C422.38,468.22 422.68,473.27 423.53,479.05C424.37,484.80 426.17,494.95 427.53,501.61C428.89,508.28 430.00,515.22 430.00,517.04C430.00,518.85 430.74,521.17 431.65,522.17C432.72,523.34 434.70,524.00 437.19,524.00zM92.00,509.39C87.88,509.59 83.26,509.55 81.75,509.31C80.24,509.06 79.00,508.48 79.00,508.01C79.00,507.54 80.63,506.62 82.63,505.96C84.63,505.30 88.79,504.14 91.88,503.37C94.97,502.61 102.26,501.70 108.08,501.35C115.22,500.92 120.37,501.13 123.91,501.98C126.80,502.67 128.79,503.61 128.33,504.07C127.87,504.52 124.95,505.56 121.83,506.37C118.71,507.18 112.41,508.12 107.83,508.45C103.25,508.77 96.12,509.20 92.00,509.39zM81.24,493.40C49.99,493.80 49.99,493.80 49.36,491.31C49.02,489.95 48.96,484.35 49.22,478.87C49.48,473.38 50.20,468.40 50.80,467.80C51.60,467.00 52.23,467.42 53.11,469.35C53.78,470.82 55.14,472.00 56.16,472.00C57.47,472.00 58.00,471.26 58.00,469.45C58.00,468.05 58.72,465.50 59.61,463.79C61.16,460.79 61.13,460.61 58.91,458.93C56.59,457.18 56.59,457.18 59.91,454.09C62.78,451.41 63.14,450.54 62.59,447.65C62.12,445.14 62.47,443.67 63.98,441.75C65.09,440.34 66.00,437.85 66.00,436.22C66.00,434.59 67.08,430.84 68.40,427.88C70.80,422.50 70.80,422.50 72.99,427.50C74.19,430.25 75.43,434.01 75.74,435.85C76.11,438.10 75.85,439.48 74.93,440.04C73.82,440.73 73.98,441.62 75.78,444.83C77.00,447.00 78.00,449.73 78.00,450.90C78.00,452.07 77.50,453.82 76.90,454.80C75.99,456.24 76.34,457.15 78.78,459.76C81.76,462.95 81.76,462.95 82.38,459.85C82.72,458.15 83.00,455.65 83.00,454.31C83.00,452.97 83.97,449.61 85.16,446.86C87.31,441.84 87.31,441.84 88.56,444.81C89.25,446.45 90.34,450.31 90.98,453.39C91.62,456.48 92.58,459.00 93.11,459.00C93.65,459.00 95.45,455.96 97.12,452.25C99.95,445.94 100.24,445.63 101.57,447.44C102.36,448.51 103.00,450.13 103.00,451.04C103.00,451.96 104.12,454.82 105.50,457.40C106.87,459.99 108.00,462.53 108.00,463.05C108.00,463.57 107.10,464.00 106.00,464.00C104.90,464.00 104.00,464.28 104.00,464.63C104.00,464.98 104.92,466.75 106.05,468.58C107.18,470.41 107.96,473.14 107.80,474.69C107.60,476.57 107.96,477.50 108.90,477.50C109.69,477.50 111.12,475.13 112.21,472.00C113.27,468.98 114.50,464.93 114.96,463.00C115.42,461.07 116.54,457.41 117.45,454.85C118.37,452.29 119.93,449.47 120.92,448.58C122.62,447.04 122.89,447.37 125.96,454.72C127.74,459.00 129.43,463.72 129.71,465.22C129.99,466.71 130.90,468.50 131.74,469.20C133.01,470.25 133.72,469.90 136.13,467.01C138.50,464.17 138.90,462.97 138.38,460.21C137.84,457.33 138.22,456.37 141.05,453.45C144.01,450.39 144.23,449.79 143.17,447.48C142.53,446.06 142.00,444.77 142.00,444.60C142.00,444.43 143.15,443.05 144.56,441.53C146.10,439.87 146.88,438.13 146.52,437.18C146.18,436.31 147.35,432.76 149.10,429.30C150.86,425.83 152.57,423.00 152.90,423.01C153.23,423.01 155.05,426.87 156.94,431.59C159.95,439.11 160.21,440.43 159.05,442.29C157.84,444.23 158.06,444.71 161.46,447.65C163.51,449.43 164.90,451.36 164.54,451.94C164.18,452.52 163.01,453.00 161.94,453.00C160.68,453.00 160.00,453.69 160.00,454.97C160.00,456.13 161.18,457.56 162.85,458.42C164.42,459.23 166.44,461.03 167.35,462.41C168.26,463.80 169.00,465.40 169.00,465.96C169.00,466.53 167.43,467.00 165.50,467.00C163.57,467.00 162.00,467.40 162.00,467.89C162.00,468.38 162.68,469.05 163.52,469.37C164.35,469.69 165.46,471.09 165.99,472.47C166.52,473.86 167.33,475.00 167.79,475.00C168.25,475.00 169.78,473.76 171.20,472.25C173.11,470.20 173.94,467.97 174.45,463.50C174.82,460.20 176.23,453.79 177.59,449.25C178.95,444.71 180.30,441.00 180.58,441.00C180.87,441.00 181.97,442.91 183.03,445.25C184.09,447.59 184.97,450.41 184.98,451.52C184.99,452.63 186.13,455.20 187.51,457.23C189.98,460.87 189.99,460.93 188.01,462.00C186.90,462.59 186.00,463.95 186.00,465.04C186.00,466.12 186.47,467.00 187.05,467.00C187.62,467.00 188.67,468.36 189.37,470.03C190.65,473.07 190.65,473.07 193.24,468.28C194.66,465.65 196.15,461.33 196.54,458.67C196.95,455.87 197.87,453.60 198.72,453.28C199.77,452.87 200.02,451.84 199.58,449.66C199.17,447.62 199.71,444.84 201.18,441.28C202.39,438.36 203.86,436.12 204.44,436.31C205.02,436.51 206.85,439.87 208.50,443.79C210.15,447.70 212.74,452.19 214.25,453.76C215.76,455.33 217.00,456.92 217.00,457.30C217.00,457.69 216.10,458.00 215.00,458.00C213.90,458.00 213.00,458.54 213.00,459.21C213.00,459.87 214.62,462.07 216.59,464.10C219.59,467.16 220.01,468.11 219.14,469.74C218.39,471.14 218.42,472.02 219.25,472.85C219.88,473.48 220.91,474.00 221.53,474.00C222.16,474.00 224.09,471.24 225.83,467.86C227.57,464.48 229.00,461.33 229.00,460.86C229.00,460.39 228.09,460.00 226.97,460.00C225.85,460.00 224.68,459.32 224.36,458.49C224.04,457.66 224.92,455.49 226.30,453.67C227.69,451.85 228.92,449.71 229.03,448.93C229.15,448.14 229.18,446.91 229.12,446.19C229.05,445.47 228.55,445.16 228.00,445.50C227.45,445.84 227.00,445.75 227.01,445.31C227.01,444.86 228.82,440.76 231.01,436.19C233.21,431.63 235.40,428.13 235.87,428.42C236.34,428.71 237.47,431.61 238.38,434.87C239.30,438.12 241.01,442.01 242.19,443.51C243.94,445.74 244.12,446.58 243.17,448.11C242.52,449.13 242.00,450.65 242.00,451.48C242.00,452.31 243.57,454.74 245.50,456.87C247.42,459.00 249.00,461.39 249.00,462.17C249.00,462.96 248.51,464.09 247.91,464.69C247.13,465.47 247.13,465.96 247.91,466.45C248.51,466.82 249.00,468.44 249.00,470.06C249.00,471.68 249.34,473.00 249.76,473.00C250.19,473.00 252.16,472.13 254.15,471.06C257.77,469.12 257.77,469.12 260.43,472.09C261.88,473.73 263.45,474.84 263.90,474.56C264.36,474.28 265.26,471.45 265.90,468.27C266.55,465.10 267.65,461.45 268.36,460.17C269.62,457.91 269.74,458.02 272.33,463.80C273.80,467.07 275.00,470.50 275.00,471.41C275.00,472.32 275.67,473.32 276.49,473.64C277.31,473.95 279.53,473.30 281.41,472.19C284.60,470.30 284.94,470.28 286.30,471.83C287.10,472.75 288.49,474.94 289.38,476.70C290.27,478.46 291.00,480.60 291.00,481.45C291.00,482.81 287.82,483.00 265.06,483.00C250.41,483.00 238.87,483.40 238.55,483.92C238.24,484.42 240.28,485.60 243.08,486.53C246.78,487.75 247.88,488.52 247.08,489.32C246.33,490.07 234.37,490.46 209.24,490.55C189.03,490.63 159.00,491.21 142.50,491.84C126.00,492.48 98.43,493.18 81.24,493.40zM316.38,490.98C318.53,490.99 321.68,490.12 323.44,489.04C325.22,487.93 328.13,484.38 330.06,480.96C331.95,477.59 336.15,470.71 339.39,465.67C342.62,460.63 350.09,449.75 355.99,441.50C361.88,433.25 367.25,425.45 367.93,424.17C368.60,422.89 368.92,421.23 368.63,420.47C368.34,419.72 365.72,417.72 362.80,416.04C359.89,414.36 354.64,412.08 351.14,410.99C347.65,409.90 343.05,409.00 340.93,409.00C338.23,409.00 336.46,409.67 335.00,411.23C333.86,412.45 330.28,418.64 327.05,424.98C323.82,431.32 318.87,442.10 316.06,448.95C313.24,455.80 308.93,465.10 306.47,469.61C304.01,474.12 302.00,478.92 302.00,480.27C302.00,481.62 302.88,483.85 303.96,485.22C305.04,486.59 307.40,488.44 309.21,489.33C311.02,490.22 314.25,490.96 316.38,490.98zM389.69,417.98C390.35,417.99 391.13,417.60 391.43,417.11C391.73,416.62 389.44,414.31 386.34,411.97C383.24,409.62 378.34,405.57 375.45,402.96C372.56,400.34 368.25,397.09 365.85,395.73C363.46,394.36 359.31,392.72 356.63,392.08C352.58,391.11 351.48,391.16 350.13,392.37C349.23,393.17 346.38,394.14 343.78,394.52C341.19,394.90 338.59,395.79 338.01,396.48C337.20,397.46 338.41,398.11 343.34,399.35C346.84,400.23 354.84,403.28 361.10,406.13C367.37,408.97 376.10,412.80 380.50,414.63C384.90,416.46 389.04,417.97 389.69,417.98zM403.79,416.34C406.38,416.00 410.60,414.95 413.16,413.99C415.72,413.04 421.72,410.14 426.48,407.54C431.25,404.94 435.00,402.66 434.81,402.48C434.62,402.29 430.36,402.75 425.33,403.50C419.66,404.35 414.19,405.89 410.90,407.55C407.98,409.03 403.90,411.36 401.82,412.74C399.74,414.12 398.27,415.63 398.56,416.10C398.85,416.57 401.20,416.67 403.79,416.34zM394.02,402.00C396.12,402.00 398.55,401.73 399.42,401.39C400.29,401.06 401.00,400.43 401.00,399.99C401.00,399.55 398.19,397.86 394.75,396.24C391.31,394.61 382.99,389.63 376.26,385.16C369.53,380.70 361.78,375.91 359.04,374.52C356.31,373.13 353.07,372.00 351.86,372.00C350.65,372.00 348.83,372.74 347.83,373.65C346.82,374.57 346.00,375.63 346.00,376.02C346.00,376.41 348.63,377.69 351.85,378.87C355.07,380.04 359.09,382.01 360.78,383.25C362.48,384.49 367.34,387.92 371.59,390.88C375.83,393.85 381.76,397.56 384.76,399.13C387.99,400.84 391.75,402.00 394.02,402.00zM415.75,401.99C416.71,401.99 419.10,400.98 421.05,399.74C423.00,398.51 429.83,393.77 436.22,389.20C442.61,384.64 448.38,380.25 449.04,379.45C449.70,378.65 449.94,378.00 449.57,378.00C449.20,378.00 445.70,379.36 441.80,381.02C437.90,382.68 434.52,383.85 434.30,383.63C434.08,383.41 436.17,379.73 438.96,375.46C441.75,371.19 443.79,367.46 443.51,367.17C443.22,366.89 439.27,369.16 434.74,372.23C430.21,375.29 425.53,378.29 424.33,378.89C422.17,379.98 422.17,379.97 423.74,375.98C424.60,373.78 425.08,371.75 424.79,371.46C424.51,371.18 423.02,371.42 421.48,372.01C419.94,372.59 412.34,373.35 404.59,373.68C393.09,374.18 389.45,373.98 384.79,372.63C381.64,371.71 378.27,370.72 377.29,370.43C376.30,370.14 378.43,371.43 382.00,373.31C385.57,375.19 390.83,377.27 393.69,377.95C397.71,378.90 398.74,379.52 398.27,380.73C397.92,381.64 398.45,382.85 399.53,383.64C400.69,384.49 404.12,385.00 408.69,385.00C412.71,385.00 416.01,385.34 416.02,385.75C416.02,386.16 414.11,388.15 411.77,390.17C409.42,392.18 407.77,394.10 408.10,394.43C408.42,394.75 410.61,394.34 412.97,393.51C415.32,392.68 417.64,392.00 418.13,392.00C418.61,392.00 419.00,392.42 419.00,392.92C419.00,393.43 417.88,395.18 416.50,396.82C415.12,398.45 414.00,400.29 414.00,400.89C414.00,401.50 414.79,402.00 415.75,401.99zM437.28,339.00C438.53,339.00 440.67,338.24 442.03,337.31C443.39,336.38 446.27,334.13 448.43,332.31C450.59,330.49 452.90,329.00 453.57,329.00C454.24,329.00 457.64,326.89 461.14,324.31C464.64,321.74 475.82,314.16 486.00,307.47C496.18,300.78 507.43,292.71 511.00,289.53C514.58,286.35 518.96,282.44 520.75,280.85C522.54,279.25 524.00,277.47 524.00,276.88C524.00,276.29 523.00,274.39 521.79,272.65C520.57,270.92 515.99,265.68 511.61,261.00C507.22,256.32 500.39,249.09 496.41,244.92C492.44,240.75 485.50,234.00 480.99,229.93C475.71,225.16 471.90,220.75 470.27,217.52C468.88,214.76 465.98,209.97 463.82,206.88C461.66,203.79 457.89,199.83 455.45,198.07C452.40,195.88 449.71,194.82 446.89,194.69C443.44,194.53 442.44,194.95 440.64,197.33C438.76,199.80 438.51,201.42 438.56,210.41C438.60,216.46 439.16,221.97 439.93,223.83C440.86,226.07 441.91,227.00 443.50,227.00C444.74,227.00 446.32,226.31 447.02,225.48C447.82,224.51 449.05,224.20 450.39,224.62C451.55,224.98 455.34,227.30 458.80,229.76C462.27,232.23 466.99,236.56 469.30,239.38C471.61,242.19 476.74,247.77 480.69,251.76C485.02,256.14 489.00,259.25 490.69,259.60C492.24,259.92 496.17,262.56 499.44,265.47C505.39,270.76 505.39,270.76 501.23,272.88C498.95,274.05 496.35,275.00 495.46,275.00C494.57,275.00 490.62,272.36 486.67,269.13C482.73,265.90 475.57,259.15 470.77,254.13C465.97,249.11 461.65,245.00 461.17,245.00C460.68,245.00 460.01,248.04 459.68,251.75C459.34,255.46 458.38,264.12 457.54,271.00C456.70,277.88 455.73,289.12 455.38,296.00C454.92,304.90 454.31,308.99 453.25,310.21C452.43,311.16 449.90,312.63 447.63,313.50C443.70,314.99 443.10,314.94 435.14,312.55C428.52,310.56 426.35,310.27 424.64,311.15C423.47,311.77 419.45,314.51 415.73,317.24C412.01,319.98 408.32,323.13 407.54,324.25C406.14,326.24 405.72,326.26 386.25,325.19C375.33,324.58 365.73,323.83 364.92,323.52C364.11,323.21 362.69,323.53 361.77,324.23C360.48,325.21 360.27,326.29 360.84,329.00C361.32,331.29 362.43,332.91 364.05,333.69C365.40,334.34 371.17,335.35 376.86,335.94C382.55,336.52 391.18,337.00 396.02,337.00C400.87,337.00 405.55,336.73 406.42,336.39C407.29,336.06 408.00,334.96 408.00,333.95C408.00,332.94 407.55,331.84 407.00,331.50C406.45,331.16 406.00,330.06 406.00,329.05C406.00,327.77 406.99,327.04 409.29,326.60C411.11,326.26 415.03,324.41 418.01,322.49C420.99,320.57 423.79,319.00 424.22,319.00C424.65,319.00 425.00,319.37 425.00,319.81C425.00,320.26 423.64,321.63 421.99,322.85C420.33,324.08 417.84,326.88 416.45,329.08C415.06,331.28 414.20,333.51 414.52,334.04C414.85,334.57 415.69,335.00 416.38,335.00C417.08,335.00 419.86,333.43 422.57,331.50C425.28,329.57 428.04,328.00 428.71,328.00C429.38,328.00 431.47,327.27 433.35,326.37C435.70,325.25 437.92,324.95 440.39,325.41C442.54,325.82 444.00,326.67 444.00,327.52C444.00,328.31 442.73,329.61 441.17,330.41C438.57,331.76 438.20,331.71 436.62,329.87C435.68,328.77 434.14,328.02 433.20,328.19C432.17,328.39 431.37,329.65 431.17,331.40C430.85,334.17 430.97,334.26 434.14,333.62C436.73,333.10 437.18,333.22 436.22,334.18C435.55,334.85 435.00,336.21 435.00,337.20C435.00,338.41 435.75,339.00 437.28,339.00zM285.31,312.00C286.51,312.00 290.73,311.32 294.68,310.50C298.64,309.68 302.86,309.11 304.07,309.25C305.29,309.39 306.50,308.87 306.78,308.09C307.12,307.12 306.77,306.88 305.66,307.30C304.77,307.64 302.48,307.26 300.56,306.46C298.64,305.66 294.82,305.00 292.09,305.00C288.31,305.00 286.45,305.56 284.40,307.34C282.83,308.68 281.98,310.17 282.40,310.84C282.79,311.48 284.10,312.00 285.31,312.00zM308.42,281.91C308.19,282.14 308.00,281.69 308.00,280.89C308.00,280.10 309.32,276.02 310.94,271.81C312.56,267.61 315.27,261.43 316.96,258.08C318.65,254.74 320.22,252.00 320.45,252.00C320.69,252.00 318.82,256.84 316.30,262.75C313.79,268.66 311.08,275.30 310.28,277.50C309.49,279.69 308.65,281.68 308.42,281.91zM335.99,234.79C338.33,234.52 338.65,233.77 340.71,224.00C341.93,218.22 342.94,212.06 342.96,210.31C342.98,208.55 342.55,206.84 342.01,206.51C341.46,206.17 339.93,206.98 338.59,208.32C337.22,209.69 335.05,214.29 333.58,218.92C332.16,223.42 331.00,228.34 331.00,229.85C331.00,231.36 331.56,233.16 332.24,233.84C332.93,234.53 334.61,234.95 335.99,234.79zM384.11,224.92C381.58,224.87 377.01,224.30 373.97,223.64C370.93,222.99 366.98,221.41 365.21,220.15C363.43,218.88 361.25,216.44 360.36,214.73C359.36,212.80 358.75,209.13 358.75,205.11C358.75,199.30 359.03,198.37 361.43,196.31C362.91,195.04 365.19,194.00 366.51,194.00C368.90,194.00 368.90,194.00 366.97,198.25C365.91,200.59 365.03,203.77 365.02,205.32C365.01,206.86 365.43,208.94 365.96,209.93C366.49,210.91 369.09,212.65 371.75,213.80C374.41,214.94 378.81,216.17 381.54,216.53C384.27,216.89 389.40,216.66 392.95,216.01C396.49,215.37 401.04,214.00 403.06,212.97C405.08,211.94 408.17,209.88 409.93,208.40C411.70,206.92 415.36,202.42 418.07,198.40C420.78,194.38 423.00,190.68 423.00,190.18C423.00,189.67 420.31,188.73 417.02,188.08C413.48,187.39 409.85,185.90 408.12,184.44C405.59,182.32 405.07,180.97 404.31,174.74C403.44,167.50 403.44,167.50 398.85,174.56C396.32,178.45 393.91,182.72 393.49,184.06C393.07,185.40 391.40,189.99 389.77,194.25C387.60,199.97 386.35,202.00 385.02,202.00C383.73,202.00 382.00,199.48 379.03,193.25C376.72,188.44 374.49,183.82 374.07,183.00C373.65,182.18 371.23,180.98 368.70,180.34C366.17,179.70 363.68,178.92 363.16,178.60C362.65,178.28 360.19,174.05 357.70,169.19C355.22,164.33 352.47,157.94 351.59,155.00C350.72,152.05 350.00,147.75 350.00,145.44C350.00,143.13 348.88,138.25 347.50,134.60C345.88,130.29 345.01,125.94 345.02,122.23C345.03,118.85 345.80,114.84 346.88,112.46C347.89,110.24 350.19,107.17 352.00,105.65C353.81,104.13 357.58,101.73 360.39,100.31C363.20,98.90 367.45,96.35 369.82,94.65C373.39,92.09 375.30,91.49 380.82,91.19C385.34,90.93 390.19,91.48 395.82,92.89C400.40,94.03 407.01,96.34 410.51,98.01C414.86,100.08 418.46,102.82 421.88,106.65C424.63,109.74 427.86,114.78 429.08,117.88C430.30,120.97 432.62,125.64 434.25,128.26C436.01,131.08 438.20,133.26 439.63,133.62C440.95,133.95 443.04,134.01 444.27,133.74C445.50,133.48 447.29,132.93 448.25,132.52C449.69,131.92 450.00,132.31 450.00,134.74C450.00,136.43 448.74,139.44 447.07,141.74C445.21,144.31 442.10,146.78 438.52,148.54C434.60,150.45 433.21,151.61 433.93,152.33C434.51,152.91 438.24,153.73 442.23,154.16C449.49,154.93 449.49,154.93 453.04,151.47C454.99,149.56 456.90,148.00 457.29,148.00C457.68,148.00 457.97,149.46 457.92,151.25C457.88,153.04 457.09,156.61 456.17,159.19C455.25,161.76 453.06,165.90 451.31,168.38C449.45,171.01 445.91,174.16 442.81,175.93C439.89,177.59 435.02,179.46 432.00,180.07C428.98,180.68 425.47,181.84 424.22,182.64C422.96,183.43 422.20,184.52 422.53,185.04C422.85,185.57 425.12,186.50 427.56,187.12C430.00,187.73 432.00,188.79 432.00,189.46C432.00,190.14 431.06,191.54 429.90,192.59C428.75,193.63 425.98,197.61 423.75,201.44C421.51,205.26 417.90,210.32 415.72,212.69C413.53,215.06 408.99,218.35 405.62,219.99C402.26,221.64 397.08,223.44 394.11,223.99C391.15,224.55 386.65,224.96 384.11,224.92zM371.65,174.94C376.85,174.99 378.91,174.43 385.01,171.29C388.98,169.24 393.32,166.13 394.69,164.35C396.10,162.49 397.01,160.13 396.83,158.80C396.57,156.98 395.93,156.54 393.75,156.69C391.47,156.84 391.00,156.47 391.00,154.52C391.00,153.17 392.93,149.90 395.50,146.89C398.42,143.47 400.00,140.67 400.00,138.92C400.00,137.44 398.39,133.89 396.43,131.04C394.47,128.19 392.05,123.97 391.04,121.68C390.04,119.38 387.71,115.97 385.86,114.10C384.01,112.23 381.05,110.10 379.28,109.35C377.51,108.61 374.80,108.00 373.25,108.00C371.71,108.00 369.33,108.74 367.97,109.65C366.61,110.56 364.22,112.48 362.66,113.90C361.10,115.33 359.15,117.78 358.34,119.34C356.89,122.11 356.96,122.27 360.93,125.93C363.17,128.00 365.00,130.60 365.00,131.71C365.00,132.82 364.07,134.92 362.93,136.37C361.79,137.81 360.05,139.00 359.06,139.00C358.08,139.00 356.04,139.97 354.53,141.15C352.11,143.06 351.87,143.76 352.43,147.28C352.78,149.46 353.54,152.15 354.13,153.25C355.04,154.95 355.86,155.15 359.71,154.63C362.61,154.23 366.23,154.58 369.86,155.62C372.96,156.51 376.06,157.69 376.75,158.24C377.44,158.79 378.00,159.81 378.00,160.51C378.00,161.21 377.21,162.73 376.25,163.89C375.12,165.26 372.38,166.41 368.50,167.15C365.20,167.78 361.96,168.71 361.31,169.22C360.65,169.73 360.38,170.83 360.70,171.66C361.02,172.49 362.23,173.55 363.39,174.02C364.55,174.49 368.27,174.90 371.65,174.94zM406.40,156.00C407.75,156.00 409.56,155.29 410.43,154.43C411.29,153.56 412.00,152.44 412.00,151.93C412.00,151.42 411.75,151.00 411.43,151.00C411.12,151.00 409.97,151.48 408.87,152.07C407.44,152.84 406.49,152.82 405.53,152.02C404.55,151.21 403.99,151.21 403.50,152.00C403.13,152.60 403.07,153.75 403.38,154.55C403.69,155.35 405.04,156.00 406.40,156.00zM363.15,152.00C362.19,152.00 360.86,151.46 360.20,150.80C359.54,150.14 359.00,148.82 359.00,147.86C359.00,146.37 359.77,146.17 364.25,146.52C367.14,146.74 369.82,146.94 370.22,146.96C370.61,146.98 370.70,147.61 370.41,148.36C370.13,149.12 368.77,150.24 367.40,150.86C366.03,151.49 364.12,152.00 363.15,152.00zM427.25,139.91C427.66,139.96 428.00,139.56 428.00,139.02C428.00,138.48 426.31,137.19 424.25,136.14C422.19,135.10 418.98,133.92 417.12,133.52C414.75,133.00 413.95,133.11 414.44,133.90C414.82,134.51 416.56,135.75 418.31,136.66C420.06,137.56 422.61,138.65 423.99,139.07C425.37,139.48 426.84,139.87 427.25,139.91zM378.60,139.00C376.68,139.00 374.62,138.24 373.65,137.17C372.74,136.17 372.00,134.79 372.00,134.12C372.00,133.45 371.33,131.60 370.51,130.01C369.69,128.43 369.27,126.46 369.58,125.64C369.90,124.82 371.93,123.45 374.10,122.58C376.27,121.71 379.12,121.00 380.43,121.00C381.90,121.00 384.57,122.71 387.41,125.46C389.93,127.92 392.00,130.58 392.00,131.39C392.00,132.20 390.81,133.79 389.37,134.93C387.92,136.07 385.92,137.00 384.92,137.00C383.93,137.00 382.84,137.45 382.50,138.00C382.16,138.55 380.40,139.00 378.60,139.00zM400.95,110.62C402.50,106.94 402.50,106.94 408.00,110.42C411.97,112.93 413.59,113.52 413.81,112.53C413.98,111.77 413.23,109.43 412.15,107.33C411.06,105.22 408.62,102.00 406.71,100.17C404.31,97.87 401.95,96.67 399.06,96.28C395.39,95.79 394.82,95.98 394.33,97.86C393.88,99.58 393.01,100.00 389.88,100.00C387.75,100.00 386.00,100.40 386.00,100.89C386.00,101.37 389.02,104.59 392.70,108.04C399.40,114.31 399.40,114.31 400.95,110.62z"></path>
</svg><style>@media (prefers-color-scheme: light) { :root { filter: none; } }
</style></svg>